<?xml version="1.0" encoding="utf-8"?>
<!-- Generator: Adobe Illustrator 24.1.3, SVG Export Plug-In . SVG Version: 6.00 Build 0)  -->
<svg version="1.1" xmlns="http://www.w3.org/2000/svg" xmlns:xlink="http://www.w3.org/1999/xlink" x="0px" y="0px"
	 viewBox="0 0 90 90" style="enable-background:new 0 0 90 90;" xml:space="preserve">
<style type="text/css">
	.st0{fill:#231F20;}
	.st1{fill:url(#SVGID_1_);}
	.st2{fill:url(#SVGID_2_);}
	.st3{fill:url(#SVGID_3_);}
	.st4{fill:#FDFCFF;}
	.st5{fill:url(#SVGID_4_);}
	.st6{fill:url(#SVGID_5_);}
	.st7{fill:url(#SVGID_6_);}
</style>
<g id="XTI">
</g>
<g id="Capa_2">
	<g>
		<polygon class="st0" points="6.68,4.95 27.13,4.95 44.81,27.87 62.39,5.06 82.67,5.06 54.9,40.94 88.84,84.92 68.4,84.92 
			44.82,54.15 20.97,84.92 1.06,84.92 34.8,40.92 		"/>
		<linearGradient id="SVGID_1_" gradientUnits="userSpaceOnUse" x1="16.8629" y1="4.8787" x2="78.6155" y2="84.9349">
			<stop  offset="0" style="stop-color:#201D9F"/>
			<stop  offset="0.9995" style="stop-color:#682ABC"/>
		</linearGradient>
		<polygon class="st1" points="6.68,4.95 27.13,4.95 88.94,85.05 		"/>
		<linearGradient id="SVGID_2_" gradientUnits="userSpaceOnUse" x1="11.5315" y1="84.905" x2="72.3595" y2="4.8487">
			<stop  offset="0" style="stop-color:#201D9F"/>
			<stop  offset="0.9995" style="stop-color:#682ABC"/>
		</linearGradient>
		<polygon class="st2" points="1.06,84.92 20.97,84.92 82.67,5.06 		"/>
		<g>
			<linearGradient id="SVGID_3_" gradientUnits="userSpaceOnUse" x1="46.4267" y1="43.3013" x2="84.022" y2="43.3013">
				<stop  offset="0.0257" style="stop-color:#682ABC"/>
				<stop  offset="0.9973" style="stop-color:#249B8F"/>
			</linearGradient>
			<path class="st3" d="M84.02,43.3c0,10.38-8.42,18.8-18.8,18.8c-10.38,0-18.8-8.42-18.8-18.8c0-10.38,8.42-18.8,18.8-18.8
				C75.61,24.5,84.02,32.92,84.02,43.3"/>
			<g>
				<path class="st4" d="M62.95,37.62v15.55h-3.68V37.62h-4.92v-3.28h13.51v3.28H62.95z"/>
				<path class="st4" d="M70.86,53.18V34.34h3.68v18.83H70.86z"/>
			</g>
		</g>
	</g>
</g>
</svg>
